<?xml version="1.0" encoding="utf-8"?>
<!-- Generator: Adobe Illustrator 27.5.0, SVG Export Plug-In . SVG Version: 6.00 Build 0)  -->
<svg version="1.1" xmlns="http://www.w3.org/2000/svg" xmlns:xlink="http://www.w3.org/1999/xlink" x="0px" y="0px"
	 viewBox="0 0 500 500" style="enable-background:new 0 0 500 500;" xml:space="preserve">
<g id="Background_Simple">
	<g>
		<path style="fill:#92E3A9;" d="M459.25,165.044c-6.983-14.532-15.478-28.502-25.157-41.768
			c-28.148-38.582-68.79-69.424-116.48-83.02c-48.664-13.874-103.75-0.276-142.697,33.113
			c-20.194,17.312-35.677,39.118-45.596,63.081c-7.035,16.995-14.561,34.156-26.416,48.799
			c-10.348,12.782-23.847,23.011-34.927,35.237c-22.965,25.342-39.107,55.276-38.93,88.82c0.227,42.876,17.497,99.07,61.863,117.532
			c36.69,15.267,77.69-4.697,115.562-7.224c35.361-2.359,66.091,15.89,100.423,16.278c81.899,0.927,149.942-64.353,168.2-138.622
			C486.504,250.866,478.81,205.75,459.25,165.044z"/>
		<path style="opacity:0.7;fill:#FFFFFF;" d="M459.25,165.044c-6.983-14.532-15.478-28.502-25.157-41.768
			c-28.148-38.582-68.79-69.424-116.48-83.02c-48.664-13.874-103.75-0.276-142.697,33.113
			c-20.194,17.312-35.677,39.118-45.596,63.081c-7.035,16.995-14.561,34.156-26.416,48.799
			c-10.348,12.782-23.847,23.011-34.927,35.237c-22.965,25.342-39.107,55.276-38.93,88.82c0.227,42.876,17.497,99.07,61.863,117.532
			c36.69,15.267,77.69-4.697,115.562-7.224c35.361-2.359,66.091,15.89,100.423,16.278c81.899,0.927,149.942-64.353,168.2-138.622
			C486.504,250.866,478.81,205.75,459.25,165.044z"/>
	</g>
</g>
<g id="Plants">
	<g>
		<path style="fill:#263238;" d="M39.032,363.661c2.88,1.258,9.925,1.099,9.931,1.099c0.073-0.002-1.514-4.612-1.648-4.891
			c-1.545-3.234-6.434-8.573-10.411-8.035c-2.865,0.387-4.459,3.255-3.812,5.953C33.752,360.543,36.578,362.589,39.032,363.661z"/>
		<path style="fill:#263238;" d="M41.463,384.068c2.988,0.436,9.275-1.388,9.775-1.535c0.993,3.52,2.297,7.051,3.813,10.551
			c0.864,2.002,1.798,3.992,2.759,5.975c-0.573-0.84-1.092-1.587-1.176-1.684c-2.346-2.711-8.47-6.569-12.163-5
			c-2.662,1.13-3.441,4.316-2.105,6.748c1.364,2.483,4.632,3.711,7.281,4.097c2.688,0.392,8.079-1.055,9.501-1.457
			c0.377,0.757,0.744,1.517,1.124,2.272c1.82,3.625,3.653,7.235,5.342,10.831c0.596,1.267,1.136,2.536,1.681,3.805
			c-0.51-0.746-0.946-1.37-1.023-1.458c-2.345-2.71-8.469-6.569-12.163-5c-2.662,1.13-3.441,4.317-2.105,6.748
			c1.366,2.483,4.632,3.711,7.281,4.097c2.565,0.374,7.553-0.917,9.245-1.386c0.519,1.316,1.041,2.633,1.485,3.931
			c0.283,0.893,0.618,1.734,0.851,2.647c0.251,0.899,0.499,1.789,0.745,2.671c0.412,1.715,0.847,3.482,1.206,5.165
			c0.259,1.169,0.484,2.287,0.714,3.413c-0.578-1.268-1.763-3.727-1.885-3.921c-1.906-3.034-7.376-7.776-11.266-6.785
			c-2.802,0.714-4.055,3.746-3.102,6.351c0.973,2.661,4.016,4.37,6.575,5.153c2.819,0.861,9.059,0.074,9.838-0.029
			c0.374,1.864,0.72,3.681,1.019,5.402c0.669,3.796,1.174,7.198,1.558,10.077h2.631c-0.459-2.979-1.058-6.529-1.851-10.514
			c-0.372-1.895-0.807-3.912-1.274-5.979c0.469-0.186,3.131-1.263,5.489-2.581c2.054,2.225,7.318,4.828,7.999,5.159
			c-0.716,1.762-1.43,3.468-2.13,5.068c-1.455,3.35-2.838,6.321-4.058,8.848h2.845c1.049-2.329,2.203-4.983,3.405-7.922
			c0.735-1.786,1.485-3.709,2.236-5.69c0.755,0.158,6.932,1.412,9.811,0.762c2.61-0.59,5.773-2.068,6.942-4.649
			c1.144-2.527,0.12-5.644-2.622-6.564c-3.804-1.278-9.612,3.043-11.739,5.927c-0.126,0.17-1.282,2.168-1.99,3.44
			c0.303-0.811,0.605-1.596,0.907-2.435c0.608-1.655,1.165-3.324,1.77-5.118c0.262-0.877,0.527-1.762,0.795-2.656
			c0.284-0.882,0.472-1.848,0.715-2.78c0.518-2.173,0.936-4.399,1.308-6.651c1.451,0.528,6.629,2.329,9.311,2.14
			c2.671-0.188,6.02-1.168,7.566-3.543c1.514-2.324,0.974-5.561-1.596-6.886c-3.567-1.84-9.963,1.552-12.503,4.08
			c-0.159,0.157-1.777,2.177-2.645,3.303c0.213-1.356,0.432-2.708,0.603-4.086c0.494-3.979,0.87-8.023,1.263-12.055
			c0.119-1.235,0.254-2.464,0.383-3.696c0.514,0.194,6.622,2.468,9.627,2.257c2.67-0.187,6.02-1.168,7.566-3.543
			c1.514-2.324,0.974-5.561-1.596-6.885c-3.567-1.84-9.962,1.551-12.502,4.08c-0.191,0.19-2.517,3.099-3.072,3.868
			c0.287-2.712,0.597-5.41,1.012-8.059c0.566-3.655,1.325-7.21,2.313-10.599c0.239,0.091,6.604,2.493,9.681,2.277
			c2.671-0.188,6.021-1.169,7.566-3.543c1.514-2.324,0.974-5.56-1.596-6.886c-3.567-1.84-9.962,1.552-12.503,4.08
			c-0.199,0.199-2.699,3.329-3.112,3.929c0.06-0.201,0.099-0.417,0.16-0.617c1.102-3.605,2.622-6.959,4.199-10.03
			c0.913-1.786,1.885-3.442,2.867-5.032c1.14,0.569,6.377,3.112,9.167,3.223c2.675,0.107,6.112-0.5,7.909-2.691
			c1.76-2.144,1.579-5.42-0.83-7.02c-3.344-2.22-10.072,0.448-12.875,2.682c-0.152,0.121-1.565,1.528-2.579,2.567
			c0.454-0.711,0.909-1.453,1.358-2.125c1.679-2.529,3.372-4.741,4.888-6.688c0.871-1.1,1.679-2.077,2.447-2.984
			c1.409-0.025,7.088-0.197,9.571-1.363c2.422-1.138,5.194-3.26,5.78-6.033c0.573-2.715-1.097-5.538-3.971-5.848
			c-3.991-0.43-8.733,5.039-10.191,8.313c-0.126,0.283-1.588,4.935-1.514,4.934c0,0,0.069-0.001,0.085-0.001
			c-0.756,0.857-1.555,1.786-2.409,2.817c-1.561,1.918-3.307,4.099-5.047,6.6c-1.746,2.496-3.573,5.256-5.234,8.337
			c-1.67,3.087-3.268,6.419-4.471,10.065c-0.014,0.041-0.022,0.086-0.036,0.127c0.021-1.176-0.031-4.465-0.064-4.717
			c-0.461-3.554-3.439-10.152-7.387-10.882c-2.843-0.525-5.251,1.702-5.478,4.467c-0.231,2.824,1.816,5.65,3.813,7.434
			c2.251,2.011,8.501,3.959,8.999,4.113c-1.114,3.483-1.974,7.147-2.64,10.903c-0.383,2.148-0.702,4.322-0.995,6.507
			c-0.015-1.017-0.035-1.927-0.052-2.053c-0.461-3.555-3.44-10.151-7.387-10.881c-2.844-0.526-5.252,1.702-5.478,4.467
			c-0.232,2.824,1.816,5.65,3.812,7.434c2.026,1.809,7.321,3.577,8.728,4.026c-0.103,0.839-0.216,1.676-0.316,2.516
			c-0.481,4.028-0.944,8.049-1.519,11.98c-0.201,1.385-0.451,2.742-0.697,4.1c-0.014-0.903-0.034-1.664-0.049-1.779
			c-0.461-3.555-3.44-10.151-7.386-10.881c-2.844-0.525-5.252,1.702-5.479,4.468c-0.231,2.823,1.817,5.65,3.814,7.433
			c1.932,1.727,6.806,3.402,8.476,3.944c-0.293,1.384-0.584,2.77-0.93,4.098c-0.257,0.901-0.442,1.786-0.75,2.677
			c-0.287,0.888-0.57,1.768-0.851,2.638c-0.603,1.657-1.215,3.371-1.843,4.973c-0.429,1.118-0.859,2.174-1.288,3.24
			c0.217-1.376,0.585-4.08,0.59-4.309c0.055-2.381-0.79-6.251-2.473-8.972c0.01-0.352-0.01-0.702-0.065-1.05
			c-0.44-2.739-3.014-4.774-5.808-4.029c-3.878,1.033-6.338,7.841-6.522,11.419c-0.011,0.211,0.127,2.515,0.238,3.968
			c-0.196-0.844-0.375-1.665-0.587-2.531c-0.407-1.715-0.864-3.415-1.347-5.247c-0.265-0.876-0.533-1.76-0.803-2.654
			c-0.249-0.891-0.626-1.801-0.937-2.713c-0.767-2.097-1.646-4.186-2.579-6.269c1.502-0.36,6.814-1.714,8.947-3.351
			c2.124-1.629,4.376-4.296,4.356-7.129c-0.02-2.775-2.255-5.176-5.13-4.863c-3.99,0.433-7.453,6.79-8.178,10.3
			c-0.045,0.219-0.281,2.796-0.384,4.214c-0.57-1.248-1.133-2.497-1.752-3.741c-1.783-3.592-3.7-7.172-5.597-10.752
			c-0.582-1.096-1.148-2.195-1.719-3.294c0.536-0.123,6.885-1.596,9.275-3.429c2.124-1.629,4.376-4.296,4.356-7.129
			c-0.02-2.774-2.255-5.175-5.13-4.862c-3.991,0.433-7.453,6.789-8.178,10.3c-0.054,0.265-0.389,3.973-0.428,4.92
			c-1.257-2.419-2.487-4.842-3.602-7.279c-1.544-3.361-2.873-6.744-3.918-10.116c0.25-0.057,6.884-1.565,9.331-3.442
			c2.124-1.629,4.376-4.295,4.356-7.129c-0.019-2.774-2.255-5.175-5.13-4.862c-3.99,0.433-7.453,6.79-8.177,10.3
			c-0.057,0.276-0.415,4.266-0.428,4.993c-0.062-0.201-0.148-0.401-0.208-0.602c-1.069-3.616-1.652-7.251-2.031-10.683
			c-0.224-1.993-0.326-3.911-0.384-5.779c1.264-0.154,7.035-0.922,9.424-2.369c2.29-1.387,4.822-3.789,5.113-6.607
			c0.285-2.76-1.674-5.392-4.565-5.397c-4.014-0.008-8.154,5.93-9.259,9.339c-0.06,0.186-0.463,2.138-0.735,3.564
			c-0.013-0.844-0.043-1.714-0.039-2.522c0.006-3.035,0.197-5.814,0.387-8.274c0.119-1.398,0.255-2.66,0.395-3.839
			c1.161-0.799,5.803-4.076,7.231-6.417c1.393-2.286,2.533-5.584,1.493-8.22c-1.019-2.581-3.97-4.014-6.538-2.687
			c-3.566,1.843-4.504,9.021-3.914,12.556c0.052,0.305,1.398,4.991,1.459,4.951c0,0,0.057-0.039,0.07-0.048
			c-0.157,1.132-0.312,2.348-0.454,3.679c-0.245,2.461-0.498,5.243-0.569,8.29c-0.079,3.044-0.08,6.355,0.234,9.842
			c0.311,3.495,0.815,7.156,1.823,10.86c0.011,0.042,0.029,0.084,0.041,0.126c-0.632-0.992-2.49-3.706-2.657-3.899
			c-2.345-2.711-8.469-6.569-12.163-5.001c-2.661,1.131-3.441,4.317-2.105,6.749C35.548,382.454,38.815,383.681,41.463,384.068z"/>
		<path style="fill:#263238;" d="M110.289,365.211c0.062,0.039,1.281-4.682,1.324-4.989c0.494-3.55-0.638-10.699-4.252-12.445
			c-2.603-1.258-5.514,0.255-6.462,2.863c-0.969,2.662,0.259,5.929,1.714,8.176C104.321,361.454,110.285,365.208,110.289,365.211z"
			/>
	</g>
</g>
<g id="Graphics_2">
	<path style="opacity:0.2;" d="M74.793,247.25c-9.215,0-16.713,7.498-16.713,16.713c0,5.286,2.474,9.998,6.317,13.063l-4.42,7.78
		c-1.368,0.014-2.694,0.712-3.426,1.983l-12.025,20.813c-1.105,1.913-0.451,4.359,1.462,5.465c0.63,0.363,1.318,0.537,1.997,0.537
		c1.382,0,2.726-0.717,3.467-2l12.025-20.813c0.744-1.288,0.675-2.809-0.023-4.008l4.351-7.658c2.129,0.986,4.491,1.551,6.988,1.551
		c9.215,0,16.713-7.497,16.713-16.712C91.505,254.748,84.008,247.25,74.793,247.25z M74.793,277.676
		c-7.562,0-13.713-6.151-13.713-13.712c0-7.562,6.151-13.713,13.713-13.713c7.561,0,13.713,6.152,13.713,13.713
		C88.505,271.525,82.354,277.676,74.793,277.676z"/>
	<path style="opacity:0.2;" d="M388.437,70.478c-2.252,8.936,3.185,18.038,12.122,20.291c5.126,1.292,10.299,0.045,14.21-2.933
		l6.464,6.187c-0.321,1.33,0.032,2.786,1.086,3.807l17.242,16.747c1.585,1.539,4.117,1.502,5.657-0.082
		c0.506-0.522,0.843-1.147,1.009-1.805c0.338-1.34-0.029-2.819-1.092-3.851l-17.242-16.747c-1.067-1.036-2.559-1.341-3.892-0.957
		l-6.363-6.09c1.476-1.824,2.602-3.976,3.212-6.397c2.252-8.936-3.185-18.038-12.121-20.291
		C399.792,56.105,390.69,61.542,388.437,70.478z M417.94,77.915c-1.848,7.332-9.316,11.794-16.648,9.946
		c-7.332-1.848-11.794-9.317-9.946-16.649c1.848-7.332,9.317-11.793,16.649-9.945C415.327,63.114,419.789,70.582,417.94,77.915z"/>
	<g style="opacity:0.2;">
		
			<ellipse transform="matrix(0.9878 -0.1557 0.1557 0.9878 -33.8747 68.3671)" style="fill:none;stroke:#000000;stroke-linecap:round;stroke-linejoin:round;stroke-miterlimit:10;" cx="419.382" cy="250.372" rx="17.618" ry="17.618"/>
		<path style="fill:none;stroke:#000000;stroke-linecap:round;stroke-linejoin:round;stroke-miterlimit:10;" d="M425.122,265.663
			l2.817-2.254l-0.282-1.408l-0.845-2.535l-1.69-1.972l-6.197-1.972c0,0-0.845,0.282-2.535,1.127
			c-1.69,0.845-1.69,0.282-2.817,0.282c-1.127,0-2.535-0.845-2.535-0.845l-1.972-3.38l1.409-3.381l1.69-1.972l0.563-3.099
			l2.254-5.916l0.563-3.944c-0.089-0.49-0.279-0.832-0.535-1.071c-5.635,1.442-10.171,5.59-12.152,10.988
			c-0.231,1.14-0.271,1.914-0.271,1.914l0.282,3.099l1.127,1.69l2.254,1.972l1.408,1.972l2.535,3.944l2.817,1.127l1.972,2.535v4.849
			c0.326,0.084,0.648,0.173,0.981,0.239c1.022,0.029,2.586,0.11,3.42,0.338c0.277,0,0.548-0.029,0.822-0.042
			C421.974,267.563,425.122,265.663,425.122,265.663z"/>
		<path style="fill:none;stroke:#000000;stroke-linecap:round;stroke-linejoin:round;stroke-miterlimit:10;" d="M426.477,234.253
			l-0.509,0.705l-0.845,3.099c0,0-1.972,2.817-0.845,4.507c1.127,1.69,3.662,3.099,3.662,3.099h2.535l2.254-0.845
			c0,0,0.845-0.282,0.845,1.69c0,1.972,1.972,5.07,1.972,5.07l1.035,2.587c0.269-1.223,0.42-2.49,0.42-3.793
			C437,243.168,432.671,236.984,426.477,234.253z"/>
	</g>
	<g style="opacity:0.2;">
		
			<circle style="fill:none;stroke:#000000;stroke-linecap:round;stroke-linejoin:round;stroke-miterlimit:10;" cx="110.837" cy="96.929" r="17.618"/>
		<path style="fill:none;stroke:#000000;stroke-linecap:round;stroke-linejoin:round;stroke-miterlimit:10;" d="M116.577,112.22
			l2.817-2.254l-0.282-1.409l-0.845-2.535l-1.69-1.972l-6.197-1.972c0,0-0.845,0.282-2.535,1.127
			c-1.69,0.845-1.69,0.282-2.817,0.282c-1.127,0-2.535-0.845-2.535-0.845l-1.972-3.38l1.409-3.38l1.69-1.972l0.563-3.099
			l2.254-5.916L107,80.951c-0.089-0.49-0.278-0.832-0.535-1.071c-5.635,1.442-10.171,5.59-12.152,10.988
			c-0.231,1.14-0.271,1.914-0.271,1.914l0.282,3.099l1.127,1.69l2.254,1.972l1.409,1.972l2.535,3.944l2.817,1.127l1.972,2.535v4.849
			c0.326,0.084,0.649,0.173,0.981,0.239c1.022,0.029,2.586,0.111,3.42,0.338c0.278,0,0.548-0.029,0.822-0.041
			C113.43,114.12,116.577,112.22,116.577,112.22z"/>
		<path style="fill:none;stroke:#000000;stroke-linecap:round;stroke-linejoin:round;stroke-miterlimit:10;" d="M117.932,80.81
			l-0.509,0.705l-0.845,3.099c0,0-1.972,2.817-0.845,4.507c1.127,1.69,3.662,3.099,3.662,3.099h2.535l2.254-0.845
			c0,0,0.845-0.282,0.845,1.69S127,98.135,127,98.135l1.035,2.587c0.269-1.223,0.42-2.49,0.42-3.793
			C128.455,89.725,124.126,83.54,117.932,80.81z"/>
	</g>
	<g style="opacity:0.2;">
		
			<ellipse transform="matrix(0.9707 -0.2404 0.2404 0.9707 -66.0878 39.7444)" style="fill:none;stroke:#000000;stroke-linecap:round;stroke-linejoin:round;stroke-miterlimit:10;" cx="129.876" cy="290.779" rx="24.876" ry="24.876"/>
		<path style="fill:none;stroke:#000000;stroke-linecap:round;stroke-linejoin:round;stroke-miterlimit:10;" d="M137.98,312.369
			l3.977-3.182l-0.398-1.989l-1.193-3.58l-2.386-2.784l-8.75-2.784c0,0-1.193,0.398-3.58,1.591
			c-2.387,1.193-2.387,0.398-3.978,0.398c-1.591,0-3.58-1.193-3.58-1.193l-2.784-4.773l1.989-4.773l2.386-2.784l0.796-4.375
			l3.182-8.353l0.796-5.568c-0.126-0.691-0.393-1.175-0.755-1.512c-7.957,2.036-14.362,7.893-17.159,15.515
			c-0.326,1.61-0.382,2.703-0.382,2.703l0.398,4.375l1.591,2.387l3.182,2.784l1.989,2.784l3.58,5.568l3.978,1.591l2.784,3.58v6.847
			c0.46,0.118,0.916,0.245,1.385,0.337c1.443,0.042,3.651,0.156,4.829,0.477c0.392,0,0.773-0.041,1.16-0.059
			C133.536,315.051,137.98,312.369,137.98,312.369z"/>
		<path style="fill:none;stroke:#000000;stroke-linecap:round;stroke-linejoin:round;stroke-miterlimit:10;" d="M139.893,268.018
			l-0.719,0.996l-1.193,4.375c0,0-2.784,3.977-1.193,6.364c1.591,2.387,5.171,4.375,5.171,4.375h3.58l3.182-1.193
			c0,0,1.193-0.398,1.193,2.387c0,2.784,2.784,7.159,2.784,7.159l1.461,3.653c0.379-1.727,0.594-3.515,0.594-5.356
			C154.752,280.607,148.639,271.874,139.893,268.018z"/>
	</g>
	<g style="opacity:0.2;">
		<path d="M121.131,335.812v7.323h-1.813v-16.274h1.813v7.324h3.999v-7.324h1.813v16.274h-1.813v-7.323H121.131z"/>
		<path d="M131.149,343.135v-14.623h-2.999v-1.651h7.788v1.651h-2.999v14.623H131.149z"/>
		<path d="M139.517,343.135v-14.623h-2.999v-1.651h7.788v1.651h-2.999v14.623H139.517z"/>
		<path d="M149.094,326.861c2.557,0,3.65,1.511,3.65,3.976v1.953c0,2.581-1.209,3.929-3.789,3.929h-1.604v6.417h-1.814v-16.274
			H149.094z M148.954,335.091c1.348,0,2-0.628,2-2.185v-2.162c0-1.488-0.535-2.232-1.86-2.232h-1.744v6.579H148.954z"/>
		<path d="M155.905,332.022v2.255h-1.744v-2.255H155.905z M155.905,340.88v2.255h-1.744v-2.255H155.905z"/>
		<path d="M165.203,326.861l-6.416,16.274h-1.581l6.416-16.274H165.203z"/>
		<path d="M169.759,326.861l-6.416,16.274h-1.581l6.416-16.274H169.759z"/>
		<path d="M175.384,343.135h-2.488l-2.232-16.274h1.767l1.906,13.856l1.814-13.833h1.79l1.79,13.856l1.837-13.88h1.581
			l-2.209,16.274h-2.394l-1.558-11.043L175.384,343.135z"/>
		<path d="M188.936,343.135h-2.488l-2.232-16.274h1.768l1.906,13.856l1.813-13.833h1.79l1.79,13.856l1.837-13.88h1.58l-2.209,16.274
			h-2.394l-1.558-11.043L188.936,343.135z"/>
		<path d="M202.488,343.135H200l-2.232-16.274h1.768l1.906,13.856l1.813-13.833h1.79l1.79,13.856l1.837-13.88h1.58l-2.209,16.274
			h-2.394l-1.558-11.043L202.488,343.135z"/>
		<path d="M212.529,340.88v2.255h-1.743v-2.255H212.529z"/>
		<path d="M216.132,340.88v2.255h-1.743v-2.255H216.132z"/>
		<path d="M219.735,340.88v2.255h-1.743v-2.255H219.735z"/>
	</g>
	<g style="opacity:0.2;">
		<path d="M386.793,130.23v7.323h-1.814v-16.274h1.814v7.324h3.999v-7.324h1.813v16.274h-1.813v-7.323H386.793z"/>
		<path d="M396.811,137.553V122.93h-2.999v-1.651h7.788v1.651h-2.999v14.623H396.811z"/>
		<path d="M405.179,137.553V122.93h-2.999v-1.651h7.788v1.651h-2.999v14.623H405.179z"/>
		<path d="M414.757,121.279c2.557,0,3.65,1.511,3.65,3.976v1.953c0,2.581-1.209,3.929-3.789,3.929h-1.604v6.417h-1.813v-16.274
			H414.757z M414.617,129.509c1.348,0,2-0.628,2-2.185v-2.162c0-1.488-0.535-2.232-1.86-2.232h-1.744v6.579H414.617z"/>
		<path d="M421.567,126.44v2.255h-1.744v-2.255H421.567z M421.567,135.298v2.255h-1.744v-2.255H421.567z"/>
		<path d="M430.865,121.279l-6.416,16.274h-1.581l6.416-16.274H430.865z"/>
		<path d="M435.422,121.279l-6.416,16.274h-1.581l6.416-16.274H435.422z"/>
		<path d="M441.047,137.553h-2.488l-2.232-16.274h1.767L440,135.135l1.814-13.833h1.79l1.79,13.856l1.837-13.88h1.581l-2.209,16.274
			h-2.395l-1.558-11.043L441.047,137.553z"/>
		<path d="M454.598,137.553h-2.488l-2.232-16.274h1.768l1.906,13.856l1.813-13.833h1.79l1.79,13.856l1.837-13.88h1.58l-2.209,16.274
			h-2.395l-1.558-11.043L454.598,137.553z"/>
		<path d="M468.15,137.553h-2.488l-2.232-16.274h1.768l1.906,13.856l1.813-13.833h1.79l1.79,13.856l1.837-13.88h1.58l-2.209,16.274
			h-2.395l-1.558-11.043L468.15,137.553z"/>
		<path d="M478.191,135.298v2.255h-1.743v-2.255H478.191z"/>
		<path d="M481.794,135.298v2.255h-1.743v-2.255H481.794z"/>
		<path d="M485.398,135.298v2.255h-1.743v-2.255H485.398z"/>
	</g>
	<g style="opacity:0.2;">
		<path d="M67.793,59.23v7.323H65.98V50.279h1.813v7.324h3.999v-7.324h1.813v16.274h-1.813V59.23H67.793z"/>
		<path d="M77.811,66.553V51.93h-2.999v-1.651h7.788v1.651h-2.999v14.623H77.811z"/>
		<path d="M86.179,66.553V51.93H83.18v-1.651h7.788v1.651H87.97v14.623H86.179z"/>
		<path d="M95.757,50.279c2.557,0,3.65,1.511,3.65,3.976v1.953c0,2.581-1.209,3.929-3.789,3.929h-1.604v6.417h-1.813V50.279H95.757z
			 M95.617,58.509c1.348,0,2-0.628,2-2.185v-2.162c0-1.488-0.535-2.232-1.86-2.232h-1.744v6.579H95.617z"/>
		<path d="M102.567,55.44v2.255h-1.744V55.44H102.567z M102.567,64.298v2.255h-1.744v-2.255H102.567z"/>
		<path d="M111.865,50.279l-6.416,16.274h-1.581l6.416-16.274H111.865z"/>
		<path d="M116.422,50.279l-6.416,16.274h-1.581l6.416-16.274H116.422z"/>
		<path d="M122.047,66.553h-2.488l-2.232-16.274h1.767L121,64.135l1.814-13.833h1.79l1.79,13.856l1.837-13.88h1.581l-2.209,16.274
			h-2.395l-1.558-11.043L122.047,66.553z"/>
		<path d="M135.598,66.553h-2.488l-2.232-16.274h1.768l1.906,13.856l1.813-13.833h1.79l1.79,13.856l1.837-13.88h1.58l-2.209,16.274
			h-2.395l-1.558-11.043L135.598,66.553z"/>
		<path d="M149.15,66.553h-2.488l-2.232-16.274h1.768l1.906,13.856l1.813-13.833h1.79l1.79,13.856l1.837-13.88h1.58l-2.209,16.274
			h-2.395l-1.558-11.043L149.15,66.553z"/>
		<path d="M159.191,64.298v2.255h-1.743v-2.255H159.191z"/>
		<path d="M162.794,64.298v2.255h-1.743v-2.255H162.794z"/>
		<path d="M166.398,64.298v2.255h-1.743v-2.255H166.398z"/>
	</g>
</g>
<g id="Graphic_1">
	<path style="fill:#263238;" d="M250.603,41.522c-71.971,0-130.524,58.553-130.524,130.524s58.553,130.524,130.524,130.524
		s130.524-58.553,130.524-130.524S322.574,41.522,250.603,41.522z M374.074,168.546h-56.987
		c-0.299-22.675-3.487-44.383-9.233-63.402c10.834-5.294,20.968-12.113,30.103-20.35
		C359.526,106.388,373.161,135.904,374.074,168.546z M250.603,295.571c-15.436,0-30.149-12.522-41.432-35.26
		c-2.702-5.446-5.11-11.327-7.235-17.541c15.211-6.521,31.715-9.954,48.667-9.954c16.95,0,33.455,3.434,48.666,9.955
		c-2.125,6.213-4.533,12.095-7.235,17.54C280.753,283.048,266.038,295.571,250.603,295.571z M250.603,225.816
		c-17.687,0-34.915,3.536-50.819,10.259c-5.387-18.151-8.373-38.864-8.666-60.529h118.97c-0.293,21.665-3.279,42.377-8.666,60.528
		C285.516,229.352,268.288,225.816,250.603,225.816z M191.118,168.546c0.292-21.644,3.274-42.336,8.651-60.475
		c15.909,6.727,33.142,10.265,50.834,10.265c17.691,0,34.924-3.538,50.834-10.265c5.377,18.138,8.358,38.831,8.651,60.475H191.118z
		 M250.603,48.522c15.435,0,30.15,12.522,41.431,35.26c2.71,5.461,5.123,11.36,7.253,17.592
		c-15.216,6.526-31.727,9.963-48.684,9.963c-16.958,0-33.469-3.436-48.685-9.962c2.13-6.233,4.543-12.131,7.253-17.592
		C220.454,61.044,235.167,48.522,250.603,48.522z M332.849,79.97c-8.286,7.403-17.429,13.581-27.185,18.445
		c-2.171-6.27-4.618-12.22-7.359-17.745c-6.418-12.936-13.998-22.885-22.314-29.52C297.528,55.667,317.017,65.813,332.849,79.97z
		 M202.901,80.671c-2.741,5.525-5.188,11.475-7.359,17.745c-9.756-4.864-18.899-11.042-27.185-18.445
		c15.833-14.158,35.322-24.303,56.86-28.82C216.899,57.785,209.319,67.735,202.901,80.671z M163.248,84.795
		c9.135,8.237,19.269,15.056,30.103,20.35c-5.745,19.019-8.933,40.727-9.232,63.402h-56.987
		C128.044,135.904,141.679,106.388,163.248,84.795z M127.131,175.546h56.987c0.3,22.695,3.493,44.421,9.249,63.453
		c-10.828,5.289-20.957,12.101-30.089,20.33C141.692,237.733,128.044,208.204,127.131,175.546z M168.39,264.152
		c8.282-7.395,17.42-13.566,27.169-18.424c2.167,6.251,4.608,12.185,7.341,17.694c6.419,12.936,13.998,22.885,22.315,29.521
		C203.693,288.428,184.217,278.294,168.39,264.152z M298.305,263.422c2.734-5.509,5.175-11.443,7.341-17.694
		c9.749,4.859,18.887,11.03,27.169,18.424c-15.826,14.142-35.303,24.276-56.825,28.79
		C284.307,286.307,291.887,276.358,298.305,263.422z M337.927,259.329c-9.132-8.228-19.26-15.041-30.089-20.329
		c5.756-19.032,8.949-40.758,9.249-63.454h56.987C373.161,208.204,359.513,237.733,337.927,259.329z"/>
</g>
<g id="Url">
	<g>
		<rect x="170.748" y="156.858" style="opacity:0.2;" width="257.877" height="42.711"/>
		<path style="opacity:0.2;" d="M153.597,199.569H77.553c-4.038,0-7.311-3.273-7.311-7.311V164.17c0-4.038,3.273-7.311,7.311-7.311
			h76.044c4.038,0,7.311,3.273,7.311,7.311v28.089C160.908,196.296,157.635,199.569,153.597,199.569z"/>
		
			<rect x="173.748" y="149.858" style="fill:#FFFFFF;stroke:#263238;stroke-linecap:round;stroke-linejoin:round;stroke-miterlimit:10;" width="257.877" height="42.711"/>
		<g>
			<g>
				<path style="fill:#263238;" d="M214.264,173.154v10.05h-2.489v-22.335h2.489v10.051h5.488v-10.051h2.489v22.335h-2.489v-10.05
					H214.264z"/>
				<path style="fill:#263238;" d="M228.013,183.204v-20.069h-4.116v-2.266h10.688v2.266h-4.116v20.069H228.013z"/>
				<path style="fill:#263238;" d="M239.497,183.204v-20.069h-4.116v-2.266h10.689v2.266h-4.116v20.069H239.497z"/>
				<path style="fill:#263238;" d="M252.641,160.869c3.51,0,5.009,2.074,5.009,5.456v2.68c0,3.541-1.659,5.392-5.2,5.392h-2.202
					v8.806h-2.489v-22.335H252.641z M252.449,172.164c1.851,0,2.744-0.861,2.744-2.999v-2.967c0-2.042-0.734-3.063-2.553-3.063
					h-2.393v9.029H252.449z"/>
				<path style="fill:#263238;" d="M261.987,167.953v3.095h-2.394v-3.095H261.987z M261.987,180.109v3.095h-2.394v-3.095H261.987z"
					/>
				<path style="fill:#263238;" d="M274.748,160.869l-8.806,22.335h-2.17l8.806-22.335H274.748z"/>
				<path style="fill:#263238;" d="M281.001,160.869l-8.806,22.335h-2.17l8.806-22.335H281.001z"/>
				<path style="fill:#263238;" d="M288.721,183.204h-3.414l-3.063-22.335h2.425l2.616,19.016l2.489-18.984h2.457l2.456,19.016
					l2.521-19.048h2.17l-3.031,22.335h-3.286l-2.138-15.155L288.721,183.204z"/>
				<path style="fill:#263238;" d="M307.318,183.204h-3.414l-3.064-22.335h2.426l2.616,19.016l2.488-18.984h2.457l2.456,19.016
					l2.522-19.048h2.169l-3.031,22.335h-3.286l-2.138-15.155L307.318,183.204z"/>
				<path style="fill:#263238;" d="M325.917,183.204h-3.414l-3.063-22.335h2.426l2.616,19.016l2.488-18.984h2.457l2.456,19.016
					l2.522-19.048h2.169l-3.031,22.335h-3.286l-2.138-15.155L325.917,183.204z"/>
				<path style="fill:#263238;" d="M339.697,180.109v3.095h-2.393v-3.095H339.697z"/>
				<path style="fill:#263238;" d="M344.642,180.109v3.095h-2.393v-3.095H344.642z"/>
				<path style="fill:#263238;" d="M349.587,180.109v3.095h-2.393v-3.095H349.587z"/>
			</g>
			<g>
				
					<ellipse transform="matrix(0.9751 -0.2218 0.2218 0.9751 -33.232 46.547)" style="fill:#92E3A9;stroke:#263238;stroke-linecap:round;stroke-linejoin:round;stroke-miterlimit:10;" cx="190.599" cy="171.214" rx="12.123" ry="12.123"/>
				<path style="fill:#FFFFFF;stroke:#263238;stroke-linecap:round;stroke-linejoin:round;stroke-miterlimit:10;" d="
					M194.549,181.736l1.938-1.551l-0.194-0.969l-0.582-1.745l-1.163-1.357l-4.265-1.357c0,0-0.581,0.194-1.744,0.775
					c-1.163,0.582-1.163,0.194-1.938,0.194s-1.745-0.582-1.745-0.582l-1.357-2.326l0.969-2.326l1.163-1.357l0.388-2.132l1.551-4.071
					l0.388-2.714c-0.061-0.337-0.192-0.573-0.368-0.737c-3.878,0.992-6.999,3.847-8.362,7.561c-0.159,0.785-0.186,1.317-0.186,1.317
					l0.194,2.132l0.775,1.163l1.551,1.357l0.969,1.357l1.745,2.714l1.938,0.775l1.357,1.745v3.337
					c0.224,0.058,0.446,0.119,0.675,0.164c0.703,0.02,1.779,0.076,2.354,0.232c0.191,0,0.377-0.02,0.565-0.029
					C192.383,183.043,194.549,181.736,194.549,181.736z"/>
				<path style="fill:#FFFFFF;stroke:#263238;stroke-linecap:round;stroke-linejoin:round;stroke-miterlimit:10;" d="
					M195.481,160.122l-0.351,0.485l-0.582,2.132c0,0-1.357,1.938-0.581,3.102c0.775,1.163,2.52,2.132,2.52,2.132h1.745l1.551-0.581
					c0,0,0.582-0.194,0.582,1.163c0,1.357,1.357,3.489,1.357,3.489l0.712,1.78c0.185-0.842,0.289-1.713,0.289-2.61
					C202.722,166.257,199.743,162.001,195.481,160.122z"/>
			</g>
		</g>
		<g>
			<path style="fill:#FFFFFF;stroke:#263238;stroke-linecap:round;stroke-linejoin:round;stroke-miterlimit:10;" d="
				M156.597,192.569H80.553c-4.038,0-7.311-3.273-7.311-7.311V157.17c0-4.038,3.273-7.311,7.311-7.311h76.044
				c4.038,0,7.311,3.273,7.311,7.311v28.089C163.908,189.296,160.635,192.569,156.597,192.569z"/>
			<path style="fill:#263238;stroke:#263238;stroke-linecap:round;stroke-linejoin:round;stroke-miterlimit:10;" d="M80.802,173.289
				l21.271,11.135c1.138,0.596,2.503-0.23,2.503-1.515v-22.271c0-1.285-1.364-2.111-2.503-1.515L80.802,170.26
				C79.579,170.9,79.579,172.649,80.802,173.289z"/>
			<path style="fill:#263238;stroke:#263238;stroke-linecap:round;stroke-linejoin:round;stroke-miterlimit:10;" d="
				M154.325,173.289l-21.271,11.135c-1.138,0.596-2.503-0.23-2.503-1.515v-22.271c0-1.285,1.364-2.111,2.503-1.515l21.271,11.135
				C155.547,170.9,155.547,172.649,154.325,173.289z"/>
		</g>
	</g>
</g>
<g id="Character">
	<path style="fill:#263238;" d="M415.273,322.14H302.37c-4.988,0-9.207,3.69-9.871,8.633l-16.84,125.367h133l16.484-122.715
		C425.946,327.451,421.3,322.14,415.273,322.14z"/>
	<g>
		<g>
			<path style="fill:#92E3A9;stroke:#263238;stroke-linecap:round;stroke-linejoin:round;stroke-miterlimit:10;" d="
				M199.047,411.747c7.279,4.16,21.837,5.199,23.917,3.12c2.08-2.08,20.104-33.622,20.104-33.622s2.08,26.69,2.08,37.088
				c0,7.049-3.821,26.194-6.284,37.802H355.68l4.199-39.189c0,0,5.892,8.665,14.211,15.598c8.319,6.932,16.984,5.199,25.65,0.347
				c8.665-4.853,12.825-15.251,10.399-25.65c-2.426-10.399-22.53-55.113-25.65-61.005c-3.12-5.893-4.159-20.104-8.319-20.451
				c-4.16-0.347-45.061-15.251-45.061-15.251s-24.957-6.932-28.77-5.893c-3.813,1.04-33.622,2.773-35.355,2.773
				c-1.733,0-22.184,1.733-27.036,4.159c-4.853,2.426-12.825,16.984-14.558,22.877c-1.733,5.892-38.128,52.34-39.168,59.965
				C185.182,402.041,191.768,407.587,199.047,411.747z"/>
			<path style="fill:none;stroke:#263238;stroke-linecap:round;stroke-linejoin:round;stroke-miterlimit:10;" d="M307.943,418.25
				c-10.019,7.536-25.548,18.776-37.114,25.118"/>
			<path style="fill:none;stroke:#263238;stroke-linecap:round;stroke-linejoin:round;stroke-miterlimit:10;" d="M317.98,410.542
				c0,0-1.392,1.102-3.76,2.929"/>
			<path style="fill:none;stroke:#263238;stroke-linecap:round;stroke-linejoin:round;stroke-miterlimit:10;" d="M300.075,430.834
				c0,0-18.502,13.13-28.648,17.905"/>
			<path style="fill:none;stroke:#263238;stroke-linecap:round;stroke-linejoin:round;stroke-miterlimit:10;" d="M359.906,354.751
				c0.559-1.252,1.156-2.552,1.794-3.897"/>
			<path style="fill:none;stroke:#263238;stroke-linecap:round;stroke-linejoin:round;stroke-miterlimit:10;" d="M352.117,376.988
				c0,0,1.174-6.458,5.932-17.928"/>
			<path style="fill:none;stroke:#263238;stroke-linecap:round;stroke-linejoin:round;stroke-miterlimit:10;" d="M348.632,375.246
				c0,0-0.436-7.405,2.178-12.196"/>
			
				<line style="fill:none;stroke:#263238;stroke-linecap:round;stroke-linejoin:round;stroke-miterlimit:10;" x1="243.068" y1="381.244" x2="236.689" y2="360.436"/>
		</g>
		<g>
			<path style="fill:#FFFFFF;stroke:#263238;stroke-linecap:round;stroke-linejoin:round;stroke-miterlimit:10;" d="
				M266.175,329.853c0,0,0.63,5.354,1.26,7.874c0.63,2.52,1.575,10.078,1.575,10.078s5.039-7.559,6.299-9.133
				c1.26-1.575-2.834-10.078-2.834-10.078L266.175,329.853z"/>
			<path style="fill:#FFFFFF;stroke:#263238;stroke-linecap:round;stroke-linejoin:round;stroke-miterlimit:10;" d="
				M272.789,318.515l-6.614,11.338c0,0,5.984,7.559,11.968,11.968c5.984,4.409,15.117,11.653,15.117,11.653
				s-4.409-14.487-5.354-18.581c-0.945-4.094-8.818-17.952-8.818-17.952S274.994,315.366,272.789,318.515z"/>
			<path style="fill:#FFFFFF;stroke:#263238;stroke-linecap:round;stroke-linejoin:round;stroke-miterlimit:10;" d="
				M332.628,286.391c0,0,1.26,2.52-0.63,3.464c-1.89,0.945-5.984,2.205-5.984,2.205l0.315,14.487c0,0-13.228,23.62-17.322,29.289
				c-4.094,5.669-15.747,17.637-15.747,17.637s-10.883-14.957-12.143-18.736c-1.26-3.779-6.098-17.859-6.098-17.859
				s19.815-2.143,23.91-4.977c4.094-2.835,11.338-11.023,13.227-18.582c1.89-7.559-2.519-11.968,3.464-16.377
				c5.984-4.409,9.763-6.299,12.283-5.039C330.423,273.164,332.628,286.391,332.628,286.391z"/>
			<path style="fill:#263238;stroke:#263238;stroke-linecap:round;stroke-linejoin:round;stroke-miterlimit:10;" d="
				M321.489,286.924l4.525,5.136c0,0,4.308,1.417,6.614-5.669c2.305-7.086-4.724-14.487-4.724-14.487L321.489,286.924z"/>
			<polygon style="fill:#FFFFFF;stroke:#263238;stroke-linecap:round;stroke-linejoin:round;stroke-miterlimit:10;" points="
				302.708,332.687 293.26,353.473 312.472,340.246 			"/>
			<path style="fill:#FFFFFF;stroke:#263238;stroke-linecap:round;stroke-linejoin:round;stroke-miterlimit:10;" d="
				M326.612,299.097c0,0-7.526,12.805-11.306,18.159c-3.779,5.354-12.598,15.432-12.598,15.432l11.338,17.637
				c0,0,10.571-19.526,13.857-25.825c3.779-7.244,4.409-12.598,4.409-12.598L326.612,299.097z"/>
			<path style="fill:#FFFFFF;stroke:#263238;stroke-linecap:round;stroke-linejoin:round;stroke-miterlimit:10;" d="
				M327.589,281.037c0,0-1.89,4.409-2.52,5.354c-0.63,0.945-5.669,3.464-5.669,3.464l-2.204-2.835l0.315-18.267v-14.487
				c0,0,9.763,2.834,11.338,8.503C330.423,268.439,327.589,281.037,327.589,281.037z"/>
			<g>
				<path style="fill:#575757;stroke:#263238;stroke-linecap:round;stroke-linejoin:round;stroke-miterlimit:10;" d="
					M261.766,260.251c0,0-4.409-3.779-5.984-8.503c-1.575-4.724-3.779-11.023,1.26-18.267c5.039-7.244,19.841-25.195,36.218-25.195
					c16.377,0,35.903,10.708,44.407,17.322c8.503,6.614,15.117,19.526,17.952,25.195c2.833,5.667-0.628,9.76-1.888,12.28
					c-2.764,5.524-1.329,12.449-3.892,18.088c-3.296,7.251-11.177,7.019-17.84,8.685c-1.26,0.315-3.779-0.945-5.669-5.984
					c-1.89-5.039-1.575-14.487-7.244-24.88C313.417,248.598,281.292,237.89,261.766,260.251z"/>
				<path style="fill:none;stroke:#263238;stroke-linecap:round;stroke-linejoin:round;stroke-miterlimit:10;" d="M352.254,264.309
					c0,0-1.095-21.085-12.049-35.05"/>
				<g>
					<path style="fill:none;stroke:#787878;stroke-linecap:round;stroke-linejoin:round;stroke-miterlimit:10;" d="M280.222,217.449
						c4.491-3.106,8.086-5.281,14.016-6.379"/>
					<path style="fill:none;stroke:#787878;stroke-linecap:round;stroke-linejoin:round;stroke-miterlimit:10;" d="M261.465,240.62
						c0,0,5.91-14.775,15.19-20.672"/>
					<path style="fill:none;stroke:#787878;stroke-linecap:round;stroke-linejoin:round;stroke-miterlimit:10;" d="M295.527,217.039
						c5.197-1.651,8.382-2.477,8.382-2.477"/>
					<path style="fill:none;stroke:#787878;stroke-linecap:round;stroke-linejoin:round;stroke-miterlimit:10;" d="M267.644,237.396
						c0,0,8.059-13.432,18.535-17.192c1.544-0.554,3.018-1.068,4.409-1.54"/>
					<path style="fill:none;stroke:#787878;stroke-linecap:round;stroke-linejoin:round;stroke-miterlimit:10;" d="M278.926,237.933
						c0,0,3.761-7.253,12.626-11.283c8.865-4.029,16.118-5.91,21.759-5.91"/>
					<path style="fill:none;stroke:#787878;stroke-linecap:round;stroke-linejoin:round;stroke-miterlimit:10;" d="M307.699,227.277
						c2.282-0.761,3.731-1.164,3.731-1.164"/>
					<path style="fill:none;stroke:#787878;stroke-linecap:round;stroke-linejoin:round;stroke-miterlimit:10;" d="M287.253,237.665
						c0,0,7.522-5.372,13.432-7.79c0.961-0.393,1.893-0.758,2.781-1.093"/>
					<path style="fill:none;stroke:#787878;stroke-linecap:round;stroke-linejoin:round;stroke-miterlimit:10;" d="M315.46,251.633
						c0,0,10.208-4.567,19.341-4.835"/>
				</g>
			</g>
			<g>
				<path style="fill:#FFFFFF;stroke:#263238;stroke-linecap:round;stroke-linejoin:round;stroke-miterlimit:10;" d="
					M271.529,240.41c0,0-11.338,1.89-11.968,9.763c-0.63,7.873,0.63,21.416,1.89,25.195c1.26,3.779,0,15.747-1.26,24.25
					c-1.26,8.503,5.039,17.322,10.078,20.471c5.039,3.149,12.598,4.724,21.731,1.89c9.133-2.835,17.952-8.189,21.731-13.543
					s3.464-6.299,4.094-7.244c0.63-0.945,1.575-5.984,1.575-11.338s0-14.172,0-18.896c0-4.724-0.315-11.968-0.315-11.968
					S301.449,233.481,271.529,240.41z"/>
				<g>
					<path style="fill:#263238;stroke:#263238;stroke-linecap:round;stroke-linejoin:round;stroke-miterlimit:10;" d="
						M306.694,247.219c0.543,4.144,2.007,11.776,5.778,13.662c4.409,2.204,4.409,5.354,3.464,10.708
						c-0.945,5.354-1.89,17.952-5.984,21.416c-4.094,3.464-6.299,5.669-11.023,3.779c-4.724-1.89-6.614-4.724-13.857-5.039
						c-7.244-0.315-11.338-1.26-14.487,0.315c-3.149,1.575-5.039,3.149-5.039,3.149s-2.09-3.138-3.939-7.465
						c-0.342,3.986-0.878,8.245-1.415,11.874c-1.26,8.503,5.039,17.322,10.078,20.471c5.039,3.149,12.598,4.724,21.731,1.89
						c9.133-2.835,17.952-8.189,21.731-13.543s3.464-6.299,4.094-7.244c0.63-0.945,1.575-5.984,1.575-11.338s0-14.172,0-18.897
						c0-4.724,3.218-4.697,3.218-4.697S321.28,257.703,306.694,247.219z"/>
					<path style="fill:#263238;stroke:#263238;stroke-linecap:round;stroke-linejoin:round;stroke-miterlimit:10;" d="
						M267.737,241.488c1.423,2.282,5.359,7.425,11.981,7.425c6.705,0,12.42-4.885,15.623-7.419
						c-6.693-2.283-14.676-3.2-23.811-1.084C271.529,240.41,269.843,240.693,267.737,241.488z"/>
				</g>
				<path style="fill:none;stroke:#263238;stroke-linecap:round;stroke-linejoin:round;stroke-miterlimit:10;" d="M276.253,263.715
					l1.575,5.669c0,0-1.575,10.078-1.89,14.172c-0.315,4.094-2.834,8.188,4.409,8.188s8.503-3.149,8.503-5.354"/>
				<path style="fill:none;stroke:#263238;stroke-width:2;stroke-linecap:round;stroke-linejoin:round;stroke-miterlimit:10;" d="
					M286.332,261.826c0,0,0.945-1.89,7.244-1.89s10.393,4.094,10.393,4.094"/>
				<path style="fill:none;stroke:#263238;stroke-width:2;stroke-linecap:round;stroke-linejoin:round;stroke-miterlimit:10;" d="
					M272.159,262.456c0,0-4.724-2.835-9.763,0"/>
				<path style="fill:none;stroke:#FFFFFF;stroke-width:2;stroke-linecap:round;stroke-linejoin:round;stroke-miterlimit:10;" d="
					M272.841,296.92c3.218,1.268,9.561,2.811,16.955-0.451"/>
				<ellipse style="fill:#263238;" cx="295.307" cy="270.802" rx="2.047" ry="2.677"/>
				<ellipse style="fill:#263238;" cx="270.9" cy="270.802" rx="2.047" ry="2.677"/>
				<path style="fill:none;stroke:#263238;stroke-linecap:round;stroke-linejoin:round;stroke-miterlimit:10;" d="M275.939,273.793
					c0,0-2.205,2.205-4.409,3.149"/>
				<path style="fill:none;stroke:#263238;stroke-linecap:round;stroke-linejoin:round;stroke-miterlimit:10;" d="M290.741,274.108
					c0,0,2.52,4.094,5.984,3.779"/>
			</g>
			<path style="fill:#FFFFFF;stroke:#263238;stroke-linecap:round;stroke-linejoin:round;stroke-miterlimit:10;" d="
				M286.152,338.019c0,0-4.331-2.454-6.785-4.908s-3.032-5.919-5.197-2.887c-2.165,3.032-1.155,5.63,1.732,7.651
				c2.887,2.021,11.116,3.32,11.116,3.32S289.184,339.607,286.152,338.019z"/>
		</g>
		<g>
			<g>
				<path style="fill:#FFFFFF;stroke:#263238;stroke-linecap:round;stroke-linejoin:round;stroke-miterlimit:10;" d="
					M287.162,338.885c0,0-10.972-4.042-12.848-3.753c-1.877,0.289-3.898,1.877-4.331,4.331c-0.433,2.454,1.732,4.187,1.732,4.187
					s-1.877,3.32-1.877,4.475c0,1.155,0.433,2.743,0.433,2.743s-2.31,2.31-2.31,4.042c0,1.732,1.877,3.609,1.877,3.609
					s-0.722,2.454,0.433,4.764c1.155,2.31,8.229,8.806,12.415,10.683c4.186,1.877,11.549,3.609,11.549,3.609l17.901,11.549
					l10.25-17.757c0,0-11.982-8.517-13.715-10.683c-1.732-2.165-5.775-8.951-7.074-13.137c-1.299-4.186-13.715-8.662-13.715-8.662
					H287.162z"/>
				
					<line style="fill:none;stroke:#263238;stroke-linecap:round;stroke-linejoin:round;stroke-miterlimit:10;" x1="271.715" y1="343.65" x2="278.5" y2="347.385"/>
				
					<line style="fill:none;stroke:#263238;stroke-linecap:round;stroke-linejoin:round;stroke-miterlimit:10;" x1="270.272" y1="350.868" x2="277" y2="355.635"/>
				
					<line style="fill:none;stroke:#263238;stroke-linecap:round;stroke-linejoin:round;stroke-miterlimit:10;" x1="269.839" y1="358.519" x2="274.5" y2="362.135"/>
			</g>
			<g>
				<path style="fill:#FFFFFF;stroke:#263238;stroke-linecap:round;stroke-linejoin:round;stroke-miterlimit:10;" d="
					M264.078,373.885h-20.156c-1.34,0-2.468-1-2.629-2.33l-4.684-38.704c-0.191-1.577,1.04-2.966,2.629-2.966h29.524
					c1.589,0,2.82,1.389,2.629,2.966l-4.684,38.704C266.546,372.885,265.417,373.885,264.078,373.885z"/>
				<g>
					<path style="fill:none;stroke:#263238;stroke-linecap:round;stroke-miterlimit:10;" d="M240.852,327.417
						c0,0,3.036-2.226,2.631-6.476c-0.405-4.25-5.06-4.048-5.06-8.703c0-4.655,2.429-4.655,3.643-9.512"/>
					<path style="fill:none;stroke:#263238;stroke-linecap:round;stroke-miterlimit:10;" d="M252.388,327.215
						c0,0,1.619-1.214,1.619-4.857s-2.833-3.036-3.441-7.084"/>
				</g>
			</g>
			<polygon style="fill:#92E3A9;stroke:#263238;stroke-linecap:round;stroke-linejoin:round;stroke-miterlimit:10;" points="
				319.671,367.726 306.152,388.177 319.324,398.229 333.189,375.005 			"/>
			<path style="fill:#92E3A9;stroke:#263238;stroke-linecap:round;stroke-linejoin:round;stroke-miterlimit:10;" d="
				M406.326,397.535c0,0,6.239,16.984,6.932,22.877c0.693,5.892-4.506,18.717-7.972,23.57c-3.466,4.853-24.264,0-39.515-7.279
				c-15.251-7.279-44.021-26.69-46.447-29.463c-2.426-2.773,0-9.012,0-9.012l13.865-23.224c0,0,2.426-2.773,5.546-2.426
				c3.12,0.347,48.873,20.797,48.873,20.797"/>
		</g>
		<path style="fill:#92E3A9;stroke:#263238;stroke-linecap:round;stroke-linejoin:round;stroke-miterlimit:10;" d="M189.341,388.177
			c0,0-8.666,9.012-10.745,19.757c-2.08,10.745,2.426,18.371,4.853,23.57c2.426,5.199,4.159,7.279,7.972,7.626
			c3.813,0.347,24.957-2.773,26.343-6.239c1.386-3.466,5.893-11.438,5.199-20.451c-0.693-9.012-11.438-19.411-20.797-18.717"/>
		<path style="fill:#92E3A9;stroke:#263238;stroke-linecap:round;stroke-linejoin:round;stroke-miterlimit:10;" d="M191.421,439.13
			c0,0-1.733-8.666,11.092-12.825c12.825-4.159,17.331-0.347,16.638,4.506C218.457,435.664,199.047,443.636,191.421,439.13z"/>
		<path style="fill:#FFFFFF;stroke:#263238;stroke-linecap:round;stroke-linejoin:round;stroke-miterlimit:10;" d="M220.27,431.692
			c0,0,3.744,4.119,7.488,4.119c3.744,0,9.735,6.74,12.356,8.612c2.621,1.872,8.612,2.247,6.74,7.114
			c-1.872,4.868-9.361,1.872-12.731,0c-3.37-1.872-5.242-5.616-7.863-5.616s-5.242,0.749-12.356,2.621
			c-7.114,1.872-15.726-1.123-10.858-6.74C207.914,436.185,220.27,431.692,220.27,431.692z"/>
		<g>
			<path style="fill:#FFFFFF;stroke:#263238;stroke-linecap:round;stroke-linejoin:round;stroke-miterlimit:10;" d="
				M193.686,438.806c0,0-5.242,0-6.365,4.668c-1.123,4.668,0,11.132,4.493,12.927c4.493,1.795,2.247-3.232,2.247-6.464
				c0-3.232,0-8.977,0-8.977L193.686,438.806z"/>
			<path style="fill:#FFFFFF;stroke:#263238;stroke-linecap:round;stroke-linejoin:round;stroke-miterlimit:10;" d="
				M201.174,432.815c0,0-8.612,2.621-8.612,7.489c0,4.868,2.621,14.977,6.365,15.726c3.744,0.749,4.119-2.247,3.37-7.863
				C201.548,442.551,201.174,432.815,201.174,432.815z"/>
			<path style="fill:#FFFFFF;stroke:#263238;stroke-linecap:round;stroke-linejoin:round;stroke-miterlimit:10;" d="M210.16,429.446
				c0,0-5.991-3.744-8.237,1.123c-2.246,4.867-1.123,16.849,1.123,20.219c2.247,3.37,7.114,2.621,7.488-2.621
				C210.909,442.925,210.16,429.446,210.16,429.446z"/>
			<path style="fill:#FFFFFF;stroke:#263238;stroke-linecap:round;stroke-linejoin:round;stroke-miterlimit:10;" d="
				M221.384,430.357c0.018-2.401-1.37-4.682-3.624-5.51c-0.86-0.316-1.89-0.456-3.107-0.269c-4.867,0.749-5.616,4.119-4.867,7.114
				c0.749,2.995-0.374,17.224,2.246,19.845c2.621,2.621,7.114,1.123,8.237-1.498C221.167,447.946,221.347,435.348,221.384,430.357z"
				/>
		</g>
	</g>
	
		<line style="fill:none;stroke:#263238;stroke-linecap:round;stroke-linejoin:round;stroke-miterlimit:10;" x1="468" y1="456.14" x2="45.333" y2="456.14"/>
</g>
<g id="Device">
	<g>
		<polygon style="fill:#D1D1D1;stroke:#263238;stroke-linecap:round;stroke-linejoin:round;stroke-miterlimit:10;" points="
			285.554,467.888 181.457,453.893 112.741,455.246 192.298,480.009 		"/>
		<polygon style="fill:none;stroke:#263238;stroke-linecap:round;stroke-linejoin:round;stroke-miterlimit:10;" points="
			204.746,458.076 191.175,459.162 220.216,463.504 237.586,462.961 		"/>
		<polyline style="fill:none;stroke:#263238;stroke-linecap:round;stroke-linejoin:round;stroke-miterlimit:10;" points="
			189.004,460.247 232.429,467.304 190.361,469.747 		"/>
		<polygon style="fill:#D1D1D1;stroke:#263238;stroke-linecap:round;stroke-linejoin:round;stroke-miterlimit:10;" points="
			93.247,369.893 112.741,455.246 192.298,480.009 170.697,373.581 		"/>
		<path style="fill:#A6A6A6;stroke:#263238;stroke-linecap:round;stroke-linejoin:round;stroke-miterlimit:10;" d="M175.119,395.369
			c-11.023,10.473-23.635,27.952-38.119,45.433c-8.447,10.195-17.276,13.135-24.54,13.214l0.281,1.23l79.557,24.763L175.119,395.369
			z"/>
		<path style="fill:#FFFFFF;stroke:#263238;stroke-linecap:round;stroke-linejoin:round;stroke-miterlimit:10;" d="M142.541,414.687
			c1.089,4.708-0.457,9.087-3.453,9.78c-2.996,0.693-6.308-2.562-7.397-7.27c-1.089-4.708,0.457-9.087,3.453-9.78
			C138.14,406.724,141.452,409.979,142.541,414.687z"/>
		<polygon style="fill:#A6A6A6;stroke:#263238;stroke-linecap:round;stroke-linejoin:round;stroke-miterlimit:10;" points="
			192.298,480.009 285.554,472.106 285.554,467.888 190.718,473.157 		"/>
	</g>
</g>
</svg>
